# xmcd
#
# Track frame offsets:
#	150
#	16800
#	31038
#	33553
#	49694
#	67176
#	83954
#	99743
#	114448
#	129569
#	131371
#	148143
#	169256
#	188916
#	189878
#	204538
#	221457
#	240347
#	255712
#	272133
#	288182
#	303094
#	319414
#	337201
#	347667
#
# Disc length: 4799 seconds
#
# Revision: 3
# Processed by: cddbd v1.5.2PL0 Copyright (c) Steve Scherf et al.
# Submitted via: EasyCDDAExtractor 12.0.7.1
#
DISCID=7312bd19
DTITLE=Rednex - MTV Music History (Greatest Hits)
DYEAR=2002
DGENRE=Country
TTITLE0=The Way I Mate
TTITLE1=Cotton-Eye Joe
TTITLE2=Fresh Pigs And More
TTITLE3=The Devil Went Down To Georgia
TTITLE4=Wish You Were Here
TTITLE5=The Spirit Of The Hawk
TTITLE6=Old Pop In An Oak
TTITLE7=Hittin' The Hay
TTITLE8=Where You Gonna Go
TTITLE9=Boring
TTITLE10=Shooter
TTITLE11=Hold Me For The A While
TTITLE12=Maggie Moonshine
TTITLE13=Animal In The Rain
TTITLE14=Fat Sally Lee
TTITLE15=Get The Thuck  Loaded
TTITLE16=Rolling Home
TTITLE17=Hiding Home
TTITLE18=Bottleneck Bob 2000
TTITLE19=Mary Lou
TTITLE20=Is He Alive
TTITLE21=Wild And Free
TTITLE22=Nowhere In Idano
TTITLE23=The Sad But True Story Of Ray Minges
TTITLE24=Mickenzie Brothers II (Contininued)
EXTD=
EXTT0=
EXTT1=
EXTT2=
EXTT3=
EXTT4=
EXTT5=
EXTT6=
EXTT7=
EXTT8=
EXTT9=
EXTT10=
EXTT11=
EXTT12=
EXTT13=
EXTT14=
EXTT15=
EXTT16=
EXTT17=
EXTT18=
EXTT19=
EXTT20=
EXTT21=
EXTT22=
EXTT23=
EXTT24=
PLAYORDER=
